<?xml version="1.0" encoding="UTF-8" standalone="no"?>
<svg
   xmlns:ooo="http://xml.openoffice.org/svg/export"
   xmlns:dc="http://purl.org/dc/elements/1.1/"
   xmlns:cc="http://creativecommons.org/ns#"
   xmlns:rdf="http://www.w3.org/1999/02/22-rdf-syntax-ns#"
   xmlns:svg="http://www.w3.org/2000/svg"
   xmlns="http://www.w3.org/2000/svg"
   xmlns:sodipodi="http://sodipodi.sourceforge.net/DTD/sodipodi-0.dtd"
   xmlns:inkscape="http://www.inkscape.org/namespaces/inkscape"
   version="1.2"
   width="23.31303mm"
   height="34.992222mm"
   viewBox="0 0 2331.3031 3499.2222"
   preserveAspectRatio="xMidYMid"
   fill-rule="evenodd"
   stroke-width="28.222"
   stroke-linejoin="round"
   xml:space="preserve"
   id="svg79"
   sodipodi:docname="Clef C .svg"
   inkscape:version="1.0.1 (3bc2e813f5, 2020-09-07)"><metadata
   id="metadata83"><rdf:RDF><cc:Work
       rdf:about=""><dc:format>image/svg+xml</dc:format><dc:type
         rdf:resource="http://purl.org/dc/dcmitype/StillImage" /></cc:Work></rdf:RDF></metadata><sodipodi:namedview
   pagecolor="#ffffff"
   bordercolor="#666666"
   borderopacity="1"
   objecttolerance="10"
   gridtolerance="10"
   guidetolerance="10"
   inkscape:pageopacity="0"
   inkscape:pageshadow="2"
   inkscape:window-width="1920"
   inkscape:window-height="1001"
   id="namedview81"
   showgrid="false"
   inkscape:zoom="4.3229167"
   inkscape:cx="43.771124"
   inkscape:cy="66.334902"
   inkscape:window-x="-9"
   inkscape:window-y="-9"
   inkscape:window-maximized="1"
   inkscape:current-layer="svg79"
   inkscape:document-rotation="0" />
 <defs
   class="ClipPathGroup"
   id="defs8">
  <clipPath
   id="presentation_clip_path"
   clipPathUnits="userSpaceOnUse">
   <rect
   x="0"
   y="0"
   width="2540"
   height="5080"
   id="rect2" />
  </clipPath>
  <clipPath
   id="presentation_clip_path_shrink"
   clipPathUnits="userSpaceOnUse">
   <rect
   x="2"
   y="5"
   width="2535"
   height="5070"
   id="rect5" />
  </clipPath>
 </defs>
 <defs
   class="TextShapeIndex"
   id="defs12">
  <g
   ooo:slide="id1"
   ooo:id-list="id3 id4"
   id="g10" />
 </defs>
 <defs
   class="EmbeddedBulletChars"
   id="defs44">
  <g
   id="bullet-char-template-57356"
   transform="matrix(4.8828125e-4,0,0,-4.8828125e-4,0,0)">
   <path
   d="M 580,1141 1163,571 580,0 -4,571 Z"
   id="path14" />
  </g>
  <g
   id="bullet-char-template-57354"
   transform="matrix(4.8828125e-4,0,0,-4.8828125e-4,0,0)">
   <path
   d="M 8,1128 H 1137 V 0 H 8 Z"
   id="path17" />
  </g>
  <g
   id="bullet-char-template-10146"
   transform="matrix(4.8828125e-4,0,0,-4.8828125e-4,0,0)">
   <path
   d="M 174,0 602,739 174,1481 1456,739 Z M 1358,739 309,1346 659,739 Z"
   id="path20" />
  </g>
  <g
   id="bullet-char-template-10132"
   transform="matrix(4.8828125e-4,0,0,-4.8828125e-4,0,0)">
   <path
   d="M 2015,739 1276,0 H 717 l 543,543 H 174 v 393 h 1086 l -543,545 h 557 z"
   id="path23" />
  </g>
  <g
   id="bullet-char-template-10007"
   transform="matrix(4.8828125e-4,0,0,-4.8828125e-4,0,0)">
   <path
   d="m 0,-2 c -7,16 -16,29 -25,39 l 381,530 c -94,256 -141,385 -141,387 0,25 13,38 40,38 9,0 21,-2 34,-5 21,4 42,12 65,25 l 27,-13 111,-251 280,301 64,-25 24,25 c 21,-10 41,-24 62,-43 C 886,937 835,863 770,784 769,783 710,716 594,584 L 774,223 c 0,-27 -21,-55 -63,-84 l 16,-20 C 717,90 699,76 672,76 641,76 570,178 457,381 L 164,-76 c -22,-34 -53,-51 -92,-51 -42,0 -63,17 -64,51 -7,9 -10,24 -10,44 0,9 1,19 2,30 z"
   id="path26" />
  </g>
  <g
   id="bullet-char-template-10004"
   transform="matrix(4.8828125e-4,0,0,-4.8828125e-4,0,0)">
   <path
   d="M 285,-33 C 182,-33 111,30 74,156 52,228 41,333 41,471 c 0,78 14,145 41,201 34,71 87,106 158,106 53,0 88,-31 106,-94 l 23,-176 c 8,-64 28,-97 59,-98 l 735,706 c 11,11 33,17 66,17 42,0 63,-15 63,-46 V 965 c 0,-36 -10,-64 -30,-84 L 442,47 C 390,-6 338,-33 285,-33 Z"
   id="path29" />
  </g>
  <g
   id="bullet-char-template-9679"
   transform="matrix(4.8828125e-4,0,0,-4.8828125e-4,0,0)">
   <path
   d="M 813,0 C 632,0 489,54 383,161 276,268 223,411 223,592 c 0,181 53,324 160,431 106,107 249,161 430,161 179,0 323,-54 432,-161 108,-107 162,-251 162,-431 0,-180 -54,-324 -162,-431 C 1136,54 992,0 813,0 Z"
   id="path32" />
  </g>
  <g
   id="bullet-char-template-8226"
   transform="matrix(4.8828125e-4,0,0,-4.8828125e-4,0,0)">
   <path
   d="m 346,457 c -73,0 -137,26 -191,78 -54,51 -81,114 -81,188 0,73 27,136 81,188 54,52 118,78 191,78 73,0 134,-26 185,-79 51,-51 77,-114 77,-187 0,-75 -25,-137 -76,-188 -50,-52 -112,-78 -186,-78 z"
   id="path35" />
  </g>
  <g
   id="bullet-char-template-8211"
   transform="matrix(4.8828125e-4,0,0,-4.8828125e-4,0,0)">
   <path
   d="M -4,459 H 1135 V 606 H -4 Z"
   id="path38" />
  </g>
  <g
   id="bullet-char-template-61548"
   transform="matrix(4.8828125e-4,0,0,-4.8828125e-4,0,0)">
   <path
   d="m 173,740 c 0,163 58,303 173,419 116,115 255,173 419,173 163,0 302,-58 418,-173 116,-116 174,-256 174,-419 0,-163 -58,-303 -174,-418 C 1067,206 928,148 765,148 601,148 462,206 346,322 231,437 173,577 173,740 Z"
   id="path41" />
  </g>
 </defs>
 <g
   id="g49"
   transform="translate(-111.889,-784.889)">
  <g
   id="id2"
   class="Master_Slide">
   <g
   id="bg-id2"
   class="Background" />
   <g
   id="bo-id2"
   class="BackgroundObjects" />
  </g>
 </g>
 <g
   class="SlideGroup"
   id="g77"
   transform="translate(-111.889,-784.889)">
  <g
   id="g75">
   <g
   id="container-id1">
    <g
   id="id1"
   class="Slide"
   clip-path="url(#presentation_clip_path)">
     <g
   class="Page"
   id="g71">
      <g
   class="Group"
   id="g69">
       <g
   class="com.sun.star.drawing.CustomShape"
   id="g58">
        <g
   id="id3">
         <rect
   class="BoundingBox"
   stroke="none"
   fill="none"
   x="125"
   y="803"
   width="385"
   height="3469"
   id="rect51" />
         <path
   fill="#000000"
   stroke="none"
   d="m 189,804 h 1 c -12,0 -22,3 -32,9 -10,5 -18,13 -23,23 -6,10 -9,20 -9,32 v 3338 0 c 0,12 3,22 9,32 5,10 13,18 23,23 10,6 20,9 32,9 h 254 v 0 c 12,0 22,-3 32,-9 10,-5 18,-13 23,-23 6,-10 9,-20 9,-32 v -3339 1 0 c 0,-12 -3,-22 -9,-32 -5,-10 -13,-18 -23,-23 -10,-6 -20,-9 -32,-9 z"
   id="path53" />
         <path
   fill="none"
   stroke="#000000"
   d="m 189,804 h 1 c -12,0 -22,3 -32,9 -10,5 -18,13 -23,23 -6,10 -9,20 -9,32 v 3338 0 c 0,12 3,22 9,32 5,10 13,18 23,23 10,6 20,9 32,9 h 254 v 0 c 12,0 22,-3 32,-9 10,-5 18,-13 23,-23 6,-10 9,-20 9,-32 v -3339 1 0 c 0,-12 -3,-22 -9,-32 -5,-10 -13,-18 -23,-23 -10,-6 -20,-9 -32,-9 z"
   id="path55" />
        </g>
       </g>
       <g
   class="com.sun.star.drawing.ClosedBezierShape"
   id="g67">
        <g
   id="id4">
         <rect
   class="BoundingBox"
   stroke="none"
   fill="none"
   x="683"
   y="798"
   width="1748"
   height="3470"
   id="rect60" />
         <path
   fill="#000000"
   stroke="none"
   d="M 684,2532 V 799 h 147 c -2,512 20,1067 20,1579 1,19 37,45 35,57 67,-44 110,-104 381,-632 200,334 194,406 436,406 192,-54 272,-88 289,-401 16,-175 5,-213 -5,-547 -19,-214 -173,-301 -288,-312 -166,7 -194,-20 -292,49 -35,84 -32,95 42,125 -1,0 33,31 45,48 20,29 31,62 31,95 0,33 -11,66 -31,95 -20,29 -49,52 -84,69 -35,17 -73,25 -114,25 -40,0 -80,-8 -115,-25 -35,-17 -64,-41 -84,-69 -25,-56 -29,-64 -40,-125 34,-162 78,-194 238,-321 210,-107 216,-113 408,-103 185,32 185,41 282,73 217,119 315,200 401,376 57,271 55,323 10,550 -95,356 -181,360 -399,453 -113,26 -136,30 -289,42 -117,-12 -219,-20 -269,-12 -94,73 -135,225 -127,238 h 2 c 0,0 -1,0 -1,1 h 1 -2 c -8,13 33,165 127,238 50,8 152,0 269,-12 153,12 176,16 289,42 218,93 304,97 399,453 45,227 47,279 -10,550 -86,176 -184,257 -401,376 -97,32 -97,41 -282,73 -192,10 -198,4 -408,-103 -160,-127 -204,-159 -238,-321 11,-61 15,-69 40,-125 20,-28 49,-52 84,-69 35,-17 75,-25 115,-25 41,0 79,8 114,25 35,17 64,40 84,69 20,29 31,62 31,95 0,33 -11,66 -31,95 -12,17 -28,33 -47,47 1,0 1,1 2,1 -76,42 -77,41 -42,125 98,69 130,59 292,49 119,-7 269,-98 288,-312 10,-334 21,-372 5,-547 -17,-313 -97,-347 -289,-401 -242,0 -236,72 -436,406 -271,-528 -314,-588 -381,-632 2,12 -34,38 -35,57 0,512 -22,1067 -20,1579 H 684 V 2533 Z"
   id="path62" />
         <path
   fill="none"
   stroke="#000000"
   d="M 684,2532 V 799 h 147 c -2,512 20,1067 20,1579 1,19 37,45 35,57 67,-44 110,-104 381,-632 200,334 194,406 436,406 192,-54 272,-88 289,-401 16,-175 5,-213 -5,-547 -19,-214 -173,-301 -288,-312 -166,7 -194,-20 -292,49 -35,84 -32,95 42,125 -1,0 33,31 45,48 20,29 31,62 31,95 0,33 -11,66 -31,95 -20,29 -49,52 -84,69 -35,17 -73,25 -114,25 -40,0 -80,-8 -115,-25 -35,-17 -64,-41 -84,-69 -25,-56 -29,-64 -40,-125 34,-162 78,-194 238,-321 210,-107 216,-113 408,-103 185,32 185,41 282,73 217,119 315,200 401,376 57,271 55,323 10,550 -95,356 -181,360 -399,453 -113,26 -136,30 -289,42 -117,-12 -219,-20 -269,-12 -94,73 -135,225 -127,238 h 2 c 0,0 -1,0 -1,1 h 1 -2 c -8,13 33,165 127,238 50,8 152,0 269,-12 153,12 176,16 289,42 218,93 304,97 399,453 45,227 47,279 -10,550 -86,176 -184,257 -401,376 -97,32 -97,41 -282,73 -192,10 -198,4 -408,-103 -160,-127 -204,-159 -238,-321 11,-61 15,-69 40,-125 20,-28 49,-52 84,-69 35,-17 75,-25 115,-25 41,0 79,8 114,25 35,17 64,40 84,69 20,29 31,62 31,95 0,33 -11,66 -31,95 -12,17 -28,33 -47,47 1,0 1,1 2,1 -76,42 -77,41 -42,125 98,69 130,59 292,49 119,-7 269,-98 288,-312 10,-334 21,-372 5,-547 -17,-313 -97,-347 -289,-401 -242,0 -236,72 -436,406 -271,-528 -314,-588 -381,-632 2,12 -34,38 -35,57 0,512 -22,1067 -20,1579 H 684 V 2533 Z"
   id="path64" />
        </g>
       </g>
      </g>
     </g>
    </g>
   </g>
  </g>
 </g>&lt;!-- This image is part of a music vectors set created that I, Jeramee Sikorski, created to make music lessons for my daughters. These images are licensed under the Creative Commons license CC0 as it exists on 16 March 2021.  They were initially offered to the public at https://publicdomainvectors.org/. (I also plan to make backup copies available at https://drjeramee.blogspot.com/).  They are FREE to use, so share the love.  While optional, I do ask that you please keep my name on the images or mention me in projects that make substantial use of the images in the set, so I can see the great work you do to make the world a more beautiful place, unless you’re a bigot or white supremacist, in which case you need to go make your own images. --&gt;</svg>
